# xmcd CD database file
#
# Track frame offsets:
#	150
#	15463
#	30688
#	48367
#	61860
#	77460
#	92572
#	107361
#	118124
#	131099
#	150187
#
# Disc length: 2104 seconds
#
# Revision: 3
# Processed by: cddbd v1.5.2PL0 Copyright (c) Steve Scherf et al.
# Submitted via: CDex 1.50
#
DISCID=7408360b
DTITLE=Willie Nelson - The Promiseland
DYEAR=1986
DGENRE=Country-rock
TTITLE0=Living In The Promiseland
TTITLE1=I'm Not Trying To Forget You
TTITLE2=Here In My Heart
TTITLE3=I've Got The Craziest Feeling
TTITLE4=No Place But Texas
TTITLE5=You're Only In My Arms (To Cry On My Shoulder)
TTITLE6=Pass It On
TTITLE7=Do You Ever Think Of Me
TTITLE8=Old Fashioned Love
TTITLE9=Basin Street Blues
TTITLE10=Bach Minuet In G
EXTD=YEAR: 1986
EXTT0=
EXTT1=
EXTT2=
EXTT3=
EXTT4=
EXTT5=
EXTT6=
EXTT7=
EXTT8=
EXTT9=
EXTT10=
PLAYORDER=
